<svg xmlns="http://www.w3.org/2000/svg" viewBox="0 0 200 200" role="img" aria-labelledby="pip-cheer-title">
  <title id="pip-cheer-title">Pip the sprout, cheering</title>
  <!-- sparkles -->
  <path d="M30 36 L35 48 L47 52 L35 56 L30 68 L25 56 L13 52 L25 48 Z" fill="#ff9600"/>
  <path d="M170 32 L175 44 L187 48 L175 52 L170 64 L165 52 L153 48 L165 44 Z" fill="#ff9600"/>
  <!-- sprout -->
  <path d="M97 60 C 90 42 74 32 56 34 C 58 52 74 62 94 60 Z" fill="#2e6b04"/>
  <path d="M103 58 C 106 36 124 22 146 26 C 144 48 126 60 105 60 Z" fill="#46a302"/>
  <rect x="96" y="48" width="8" height="26" rx="4" fill="#2e6b04"/>
  <!-- body -->
  <ellipse cx="100" cy="124" rx="62" ry="56" fill="#58cc02"/>
  <ellipse cx="100" cy="152" rx="34" ry="22" fill="#ddf6c2"/>
  <!-- feet -->
  <ellipse cx="78" cy="180" rx="13" ry="8" fill="#2e6b04"/>
  <ellipse cx="122" cy="180" rx="13" ry="8" fill="#2e6b04"/>
  <!-- arms (raised) -->
  <ellipse cx="44" cy="92" rx="9" ry="17" fill="#46a302" transform="rotate(-40 44 92)"/>
  <ellipse cx="156" cy="92" rx="9" ry="17" fill="#46a302" transform="rotate(40 156 92)"/>
  <!-- face -->
  <path d="M70 106 Q80 96 90 106" fill="none" stroke="#23221c" stroke-width="6" stroke-linecap="round"/>
  <path d="M110 106 Q120 96 130 106" fill="none" stroke="#23221c" stroke-width="6" stroke-linecap="round"/>
  <ellipse cx="61" cy="118" rx="9" ry="6" fill="#ffd18f"/>
  <ellipse cx="139" cy="118" rx="9" ry="6" fill="#ffd18f"/>
  <path d="M84 116 Q100 138 116 116 Z" fill="#23221c"/>
</svg>
