<svg xmlns="http://www.w3.org/2000/svg" viewBox="0 0 200 200" role="img" aria-labelledby="pip-think-title">
  <title id="pip-think-title">Pip the sprout, thinking</title>
  <!-- thought dots -->
  <circle cx="150" cy="86" r="4" fill="#d6d4ca"/>
  <circle cx="161" cy="68" r="6" fill="#d6d4ca"/>
  <circle cx="174" cy="48" r="9" fill="#d6d4ca"/>
  <!-- sprout -->
  <path d="M97 60 C 90 42 74 32 56 34 C 58 52 74 62 94 60 Z" fill="#2e6b04"/>
  <path d="M103 58 C 106 36 124 22 146 26 C 144 48 126 60 105 60 Z" fill="#46a302"/>
  <rect x="96" y="48" width="8" height="26" rx="4" fill="#2e6b04"/>
  <!-- body -->
  <ellipse cx="100" cy="124" rx="62" ry="56" fill="#58cc02"/>
  <ellipse cx="100" cy="152" rx="34" ry="22" fill="#ddf6c2"/>
  <!-- feet -->
  <ellipse cx="78" cy="180" rx="13" ry="8" fill="#2e6b04"/>
  <ellipse cx="122" cy="180" rx="13" ry="8" fill="#2e6b04"/>
  <!-- arms (left relaxed, right to chin) -->
  <ellipse cx="44" cy="138" rx="9" ry="17" fill="#46a302" transform="rotate(24 44 138)"/>
  <ellipse cx="124" cy="132" rx="8" ry="15" fill="#46a302" transform="rotate(-55 124 132)"/>
  <!-- face -->
  <path d="M110 84 Q121 79 131 85" fill="none" stroke="#23221c" stroke-width="5" stroke-linecap="round"/>
  <circle cx="84" cy="101" r="8" fill="#23221c"/>
  <circle cx="124" cy="101" r="8" fill="#23221c"/>
  <circle cx="87" cy="98" r="2.5" fill="#ffffff"/>
  <circle cx="127" cy="98" r="2.5" fill="#ffffff"/>
  <ellipse cx="61" cy="118" rx="9" ry="6" fill="#ffd18f"/>
  <ellipse cx="139" cy="118" rx="9" ry="6" fill="#ffd18f"/>
  <path d="M91 123 L109 119" fill="none" stroke="#23221c" stroke-width="6" stroke-linecap="round"/>
</svg>
